name C:\Users\tom_v\MusculoskeletalSpecialization_revisited\Results\Case_14\motion.mot
datacolumns 32
datarows 16
range 0.28079716 0.36503630
endheader 
time	pelvis_tilt	pelvis_list	pelvis_rotation	pelvis_tx	pelvis_ty	pelvis_tz	hip_flexion_r	hip_adduction_r	hip_rotation_r	knee_angle_r	ankle_angle_r	subtalar_angle_r	mtp_angle_r	hip_flexion_l	hip_adduction_l	hip_rotation_l	knee_angle_l	ankle_angle_l	subtalar_angle_l	mtp_angle_l	lumbar_extension	lumbar_bending	lumbar_rotation	arm_flex_r	arm_add_r	arm_rot_r	elbow_flex_r	arm_flex_l	arm_add_l	arm_rot_l	elbow_flex_l	
          0.28079716	         -8.12481520	          2.08843520	         -0.25333015	          0.93505454	          0.95251522	          0.00079508	          2.54949661	         -2.83156527	         -0.62894069	        -47.85526520	        -15.05605041	         10.82956537	         12.73674205	         41.37711877	          6.06401330	          4.04601219	        -36.47658276	          1.69660406	         -7.70851855	          0.26592868	        -10.09321506	         -5.10188000	          2.70316724	         -3.01022590	        -21.12298507	         18.99026988	         62.21962206	         -7.09881878	        -11.00591863	         -9.69006382	         57.48172820	
          0.28641310	         -8.06605140	          2.11815597	         -0.32444876	          0.95439080	          0.94984817	          0.00062896	          3.53588426	         -2.96359286	         -0.78594187	        -49.48263656	        -13.64826344	         10.78353594	         11.84814166	         40.73618699	          6.43290773	          4.56434425	        -37.82022052	          4.38143509	         -7.92583083	          0.81786368	         -9.97986420	         -5.17013540	          2.58662884	         -2.29878190	        -20.26086880	         18.77641835	         59.07703712	         -6.13394001	        -11.44752420	         -8.66515440	         54.51150504	
          0.29202904	         -8.01284004	          2.14284320	         -0.39029883	          0.97355429	          0.94723400	          0.00045331	          4.64905538	         -3.08326223	         -0.95563628	        -51.16782210	        -12.12286110	         10.67845118	         11.01964488	         39.97537913	          6.78243186	          5.03251791	        -38.94227090	          6.85711599	         -8.20425563	          1.53001928	         -9.88524838	         -5.21991244	          2.45802943	         -1.51595467	        -19.35690683	         18.48723828	         55.78074408	         -5.07410899	        -11.90554091	         -7.43990439	         51.42510342	
          0.29764499	         -7.96708135	          2.16656382	         -0.44747247	          0.99246169	          0.94478863	          0.00026403	          5.88342127	         -3.18724150	         -1.12309055	        -52.88191515	        -10.49475637	         10.52151332	         10.24785017	         39.19847903	          7.12013535	          5.44832157	        -39.97707675	          9.11258908	         -8.51237098	          2.26821103	         -9.82175109	         -5.25482309	          2.31845136	         -0.65337254	        -18.41362944	         18.10603719	         52.35066027	         -3.90838216	        -12.37042353	         -5.99697025	         48.25457395	
          0.30326093	         -7.92918724	          2.18911836	         -0.49759061	          1.01110033	          0.94259464	          0.00006045	          7.22073300	         -3.27513493	         -1.28711103	        -54.57967082	         -8.78438593	         10.31391400	          9.52876485	         38.44416091	          7.44693893	          5.81601786	        -40.97533940	         11.06249993	         -8.83953099	          3.03150088	         -9.79092902	         -5.27347163	          2.17094098	          0.28170595	        -17.44047466	         17.61914761	         48.82640289	         -2.65468820	        -12.82879554	         -4.33696781	         45.06106741	
          0.30887687	         -7.89893601	          2.20550361	         -0.54281061	          1.02950386	          0.94069978	         -0.00015026	          8.63734616	         -3.34302493	         -1.45189240	        -56.21384287	         -7.01041616	         10.06174087	          8.85920730	         37.69580911	          7.75287602	          6.14085769	        -41.91297400	         12.69035574	         -9.17045010	          3.83164494	         -9.78794071	         -5.27085528	          2.01712964	          1.26659943	        -16.45201665	         17.01161625	         45.27452492	         -1.35544910	        -13.26923378	         -2.47980698	         41.93825737	
          0.31449282	         -7.87599789	          2.21254668	         -0.58461130	          1.04772255	          0.93912366	         -0.00035930	         10.11231661	         -3.38880152	         -1.62164381	        -57.75043893	         -5.18657124	          9.76902112	          8.23573750	         36.91843505	          8.02780790	          6.42887943	        -42.74700856	         14.06130998	         -9.48080886	          4.66182006	         -9.80603621	         -5.24493534	          1.85658437	          2.26644391	        -15.46716097	         16.26498274	         41.79015878	         -0.06676310	        -13.68612701	         -0.46252369	         39.00273404	
          0.32010876	         -7.86005413	          2.20846162	         -0.62432275	          1.06580130	          0.93786970	         -0.00056072	         11.63001985	         -3.41189950	         -1.79886203	        -59.16898321	         -3.33728176	          9.43931984	          7.65572930	         36.08562540	          8.26338760	          6.68396668	        -43.44575136	         15.23159982	         -9.75128165	          5.51797592	         -9.83994344	         -5.19479277	          1.68909088	          3.23897442	        -14.50900795	         15.35878185	         38.49141099	          1.15307801	        -14.08033817	          1.66433824	         36.37922959	
          0.32572470	         -7.85087162	          2.19206588	         -0.66282396	          1.08377466	          0.93693259	         -0.00075253	         13.17856070	         -3.41283122	         -1.98488441	        -60.45800335	         -1.48287120	          9.07866802	          7.11546531	         35.18556710	          8.45385986	          6.90801604	        -43.99647986	         16.23595085	         -9.96905598	          6.39744505	         -9.88642577	         -5.11956399	          1.51498361	          4.13885787	        -13.60248697	         14.27594080	         35.50770094	          2.25070627	        -14.45963165	          3.84055946	         34.18725310	
          0.33134065	         -7.84823706	          2.16235966	         -0.70065104	          1.10167046	          0.93630210	         -0.00093381	         14.74803479	         -3.39152879	         -2.17846056	        -61.61106246	          0.35973437	          8.69095816	          6.61159137	         34.21506853	          8.59503789	          7.10163265	        -44.39765881	         17.09659271	        -10.12462105	          7.29697943	         -9.94345054	         -5.01843752	          1.33484545	          4.92152796	        -12.77034439	         13.00864922	         32.96562956	          3.18190812	        -14.83831764	          6.00131112	         32.52916552	
          0.33695659	         -7.85188140	          2.11863809	         -0.73798702	          1.11951362	          0.93596464	         -0.00110423	         16.32962721	         -3.34783824	         -2.37692791	        -62.62549085	          2.17445915	          8.27875609	          6.14095353	         33.17416838	          8.68421586	          7.26525807	        -44.65188632	         17.83018973	        -10.21106976	          8.21224634	        -10.00927666	         -4.89087053	          1.14935759	          5.54635809	        -12.02966792	         11.56255860	         30.97564161	          3.91477090	        -15.23514036	          8.08481747	         31.48062458	
          0.34257253	         -7.86147548	          2.06029423	         -0.77461935	          1.13732713	          0.93590398	         -0.00126301	         17.91548048	         -3.28151737	         -2.57769432	        -63.50210687	          3.94390146	          7.84488171	          5.70089843	         32.06386497	          8.71942408	          7.39878577	        -44.76275531	         18.45038777	        -10.22335984	          9.13850631	        -10.08213644	         -4.73659029	          0.95922822	          5.97971167	        -11.38919433	          9.95780319	         29.62126730	          4.43137272	        -15.66974691	         10.03809152	         31.08476463	
          0.34818848	         -7.87665060	          1.98724577	         -0.81007149	          1.15513107	          0.93610149	         -0.00140956	         19.49931153	         -3.19256084	         -2.77820116	        -64.24519247	          5.64492914	          7.39271416	          5.28922265	         30.88560114	          8.70020991	          7.50226121	        -44.73400448	         18.96725747	        -10.15972422	         10.07144324	        -10.16044640	         -4.55590773	          0.76524623	          6.19740416	        -10.84859728	          8.22730357	         28.95302894	          4.72749359	        -16.15887963	         11.82039967	         31.35124011	
          0.35380442	         -7.89702628	          1.89990732	         -0.84380112	          1.17294224	          0.93653658	         -0.00154365	         21.07620715	         -3.08108221	         -2.97585825	        -64.86123745	          7.25654625	          6.92500484	          4.90431892	         29.64110029	          8.62759868	          7.57608240	        -44.56925687	         19.38716051	        -10.02174491	         11.00778030	        -10.24287376	         -4.34961144	          0.56832241	          6.18642433	        -10.39945343	          6.41323726	         28.98628032	          4.81057903	        -16.71333401	         13.40385941	         32.25843152	
          0.35942036	         -7.92219339	          1.79905289	         -0.87523401	          1.19077490	          0.93718737	         -0.00166521	         22.64187475	         -2.94758285	         -3.16866374	        -65.35705460	          8.75897672	          6.44583568	          4.54564676	         28.33256104	          8.50363676	          7.62073139	        -44.27258152	         19.71318928	         -9.81253431	         11.94553287	        -10.32821702	         -4.11889689	          0.36935373	          5.94569253	        -10.02760074	          4.56321887	         29.70226907	          4.69685573	        -17.33652909	         14.77307180	         33.75787212	
          0.36503630	         -7.95168173	          1.68581464	         -0.90384382	          1.20864083	          0.93803009	         -0.00177409	         24.19229535	         -2.79310592	         -3.35487102	        -65.73898629	         10.13346233	          5.95772216	          4.21294933	         26.96466528	          8.33151655	          7.63717890	        -43.85219869	         19.94435089	         -9.53440082	         12.88421216	        -10.41528084	         -3.86556205	          0.16928018	          5.48573464	         -9.71629334	          2.72598183	         31.05206383	          4.40857752	        -18.02480351	         15.92463934	         35.78052016	
